Coordinates
version=1
nRows=26
nColumns=22
inDegrees=yes

Units are S.I. units (second, meters, Newtons, ...)
If the header above contains a line with 'inDegrees', this indicates whether rotational values are in degrees (yes) or radians (no).

endheader
time	pelvis_tilt	pelvis_list	pelvis_rotation	pelvis_tx	pelvis_ty	pelvis_tz	hip_flexion_r	hip_adduction_r	hip_rotation_r	knee_angle_r	ankle_angle_r	subtalar_angle_r	hip_flexion_l	hip_adduction_l	hip_rotation_l	knee_angle_l	ankle_angle_l	subtalar_angle_l	lumbar_extension	lumbar_bending	lumbar_rotation
      0.01000000	     -0.45682669	      3.80781201	    175.84434695	     -1.43363532	      1.02678110	     -0.04017915	      1.40194981	      6.63596020	     -3.25264679	    -11.05525550	      8.09628579	     -2.94449659	      0.94858498	     -2.96246717	     -6.79415787	    -10.53037810	     10.51116883	     -2.24127997	     -9.97565462	      3.05764220	      3.78824627
      0.02000000	     -0.45823516	      3.80601193	    175.84065106	     -1.43362137	      1.02678065	     -0.04014879	      1.40175028	      6.63150604	     -3.25158693	    -11.05575323	      8.09517979	     -2.94127007	      0.94771505	     -2.95861607	     -6.79269531	    -10.53036525	     10.51103235	     -2.23922928	     -9.97414454	      3.06595951	      3.78778097
      0.03000000	     -0.45995348	      3.80408154	    175.83696383	     -1.43359930	      1.02678078	     -0.04011741	      1.40219239	      6.62726971	     -3.24985203	    -11.05703491	      8.09427229	     -2.93808772	      0.94686180	     -2.95451167	     -6.79224111	    -10.53002231	     10.51088173	     -2.23723238	     -9.97314359	      3.07476187	      3.78714398
      0.04000000	     -0.46173929	      3.80201624	    175.83259356	     -1.43357002	      1.02678127	     -0.04008531	      1.40307309	      6.62253038	     -3.24760974	    -11.05857863	      8.09363168	     -2.93501959	      0.94594001	     -2.95052385	     -6.79263704	    -10.52921765	     10.51074117	     -2.23528225	     -9.97239394	      3.08460439	      3.78587645
      0.05000000	     -0.46346326	      3.79986993	    175.82735694	     -1.43353332	      1.02678095	     -0.04005220	      1.40442532	      6.61769186	     -3.24485966	    -11.05992895	      8.09325681	     -2.93194605	      0.94487478	     -2.94626553	     -6.79399124	    -10.52748216	     10.51065548	     -2.23327370	     -9.97169853	      3.09575447	      3.78332225
      0.06000000	     -0.46480768	      3.79781073	    175.82088811	     -1.43349067	      1.02677959	     -0.04001774	      1.40624499	      6.61302355	     -3.24132943	    -11.06069786	      8.09313293	     -2.92854543	      0.94343062	     -2.94176336	     -6.79669454	    -10.52408148	     10.51065744	     -2.23097963	     -9.97076524	      3.10833087	      3.77824478
      0.07000000	     -0.46337710	      3.79839002	    175.81143489	     -1.43345762	      1.02677618	     -0.04000748	      1.41023752	      6.61299381	     -3.22336807	    -11.06280489	      8.09337620	     -2.91238674	      0.93561730	     -2.94209462	     -6.81358739	    -10.50361404	     10.51021187	     -2.22038981	     -9.96340132	      3.12172112	      3.75291907
      0.08000000	     -0.46454203	      3.79602281	    175.80472925	     -1.43339867	      1.02677516	     -0.03997524	      1.41082434	      6.60763782	     -3.22202243	    -11.05896978	      8.09373936	     -2.91021575	      0.93620895	     -2.93755931	     -6.81448180	    -10.50292076	     10.50997627	     -2.21873267	     -9.96348284	      3.13412698	      3.74998601
      0.09000000	     -0.46164597	      3.79621689	    175.79812168	     -1.43336128	      1.02677034	     -0.03995903	      1.40824585	      6.60745576	     -3.20959826	    -11.04445675	      8.09347096	     -2.89786197	      0.93287711	     -2.93706131	     -6.82919217	    -10.48740745	     10.50868657	     -2.21000027	     -9.95400246	      3.14879716	      3.71976246
      0.10000000	     -0.46184006	      3.79401261	    175.79138735	     -1.43328539	      1.02676909	     -0.03993151	      1.40946371	      6.60274473	     -3.20876548	    -11.03830757	      8.09335536	     -2.89612850	      0.93496054	     -2.93299438	     -6.82996157	    -10.48528238	     10.50844339	     -2.20855155	     -9.95672985	      3.16059908	      3.71455196
      0.11000000	     -0.45799521	      3.79418327	    175.78900757	     -1.43324634	      1.02676453	     -0.03991569	      1.40276641	      6.60318978	     -3.19929703	    -11.01395338	      8.08876468	     -2.88626408	      0.93389420	     -2.93289814	     -6.84241523	    -10.47060094	     10.50510936	     -2.20117421	     -9.94689986	      3.17482963	      3.67550039
      0.12000000	     -0.45706568	      3.79217730	    175.78345917	     -1.43315717	      1.02676315	     -0.03989766	      1.40456649	      6.59980334	     -3.19924878	    -11.00539367	      8.08814730	     -2.88497371	      0.93779543	     -2.92960369	     -6.84271706	    -10.46725794	     10.50457832	     -2.20000081	     -9.95287045	      3.18436740	      3.66988575
      0.13000000	     -0.45696732	      3.79559232	    175.79603458	     -1.43310918	      1.02677027	     -0.03986912	      1.38297259	      6.60476401	     -3.19111280	    -10.95845317	      8.06347076	     -2.86598616	      0.94053326	     -2.93311141	     -6.83532348	    -10.46328388	     10.49113520	     -2.18341762	     -9.95129920	      3.20163107	      3.62128420
      0.14000000	     -0.45521995	      3.79388241	    175.78956123	     -1.43302099	      1.02676910	     -0.03986625	      1.38546280	      6.60255637	     -3.19298057	    -10.95006314	      8.06363268	     -2.86545106	      0.94409853	     -2.93071583	     -6.83665496	    -10.45784789	     10.49141044	     -2.18281631	     -9.95801893	      3.20868449	      3.61557250
      0.15000000	     -0.45099950	      3.79352706	    175.79379805	     -1.43297790	      1.02676987	     -0.03986007	      1.37459496	      6.60355141	     -3.19427261	    -10.91593642	      8.05475057	     -2.86149702	      0.94615712	     -2.93077019	     -6.84556012	    -10.44521181	     10.48505821	     -2.17928007	     -9.95284688	      3.21806083	      3.58117908
      0.16000000	     -0.44950291	      3.79190994	    175.78712903	     -1.43289610	      1.02677047	     -0.03986811	      1.37639155	      6.60203323	     -3.19539869	    -10.90768689	      8.05386828	     -2.86117558	      0.95047243	     -2.92904694	     -6.84469385	    -10.44291216	     10.48419533	     -2.17886315	     -9.96035313	      3.22360739	      3.57637825
      0.17000000	     -0.44668050	      3.79273572	    175.79406767	     -1.43284760	      1.02677484	     -0.03986953	      1.36348088	      6.60525794	     -3.19227900	    -10.87166504	      8.03606854	     -2.85843681	      0.95769055	     -2.93136801	     -6.84559161	    -10.44283162	     10.47185092	     -2.17625805	     -9.95992750	      3.23270664	      3.54415801
      0.18000000	     -0.44547725	      3.79158207	    175.78827929	     -1.43277537	      1.02677639	     -0.03988787	      1.36587885	      6.60487092	     -3.19324290	    -10.86608961	      8.03492333	     -2.85833698	      0.96160751	     -2.93063450	     -6.84426956	    -10.44105295	     10.47138284	     -2.17597999	     -9.96768230	      3.23664792	      3.54115335
      0.19000000	     -0.44416583	      3.79049061	    175.78314029	     -1.43271020	      1.02677744	     -0.03991114	      1.36805207	      6.60509312	     -3.19359047	    -10.86043317	      8.03315419	     -2.85827891	      0.96559984	     -2.93051804	     -6.84360340	    -10.43992164	     10.47032740	     -2.17573725	     -9.97499110	      3.24023337	      3.53737962
      0.20000000	     -0.44293317	      3.78955136	    175.77862099	     -1.43264907	      1.02677793	     -0.03993904	      1.37054809	      6.60587614	     -3.19327071	    -10.85575737	      8.03082501	     -2.85830407	      0.96980363	     -2.93099511	     -6.84336240	    -10.43957652	     10.46882335	     -2.17550605	     -9.98262824	      3.24363537	      3.53372303
      0.21000000	     -0.44179719	      3.78878510	    175.77441755	     -1.43258713	      1.02677817	     -0.03997124	      1.37410486	      6.60721335	     -3.19226137	    -10.85281043	      8.02798600	     -2.85845325	      0.97448815	     -2.93207540	     -6.84335085	    -10.44014210	     10.46691227	     -2.17526189	     -9.99174087	      3.24709211	      3.53085533
      0.22000000	     -0.44375783	      3.79333687	    175.76973662	     -1.43250870	      1.02678406	     -0.04001245	      1.38204142	      6.61487191	     -3.18305152	    -10.86416986	      8.01218704	     -2.85997709	      0.98423513	     -2.94056072	     -6.84563906	    -10.45686768	     10.45696489	     -2.17414578	    -10.00789381	      3.25649281	      3.52958848
      0.23000000	     -0.44184238	      3.79177472	    175.76778884	     -1.43245166	      1.02678236	     -0.04005167	      1.38696478	      6.61626124	     -3.18295415	    -10.86229003	      8.01150401	     -2.86027982	      0.98893249	     -2.94108435	     -6.84653402	    -10.45476480	     10.45691149	     -2.17397999	    -10.01729128	      3.25866979	      3.53060509
      0.24000000	     -0.44306456	      3.79426472	    175.75759423	     -1.43235771	      1.02678646	     -0.04010813	      1.40446970	      6.62161564	     -3.17634202	    -10.88775187	      8.00368672	     -2.86313294	      0.99950101	     -2.94775186	     -6.84912962	    -10.47092138	     10.45188433	     -2.17283527	    -10.03813591	      3.26503689	      3.54550834
      0.25000000	     -0.43942392	      3.79419377	    175.74747598	     -1.43227256	      1.02678316	     -0.04016955	      1.42541200	      6.62516774	     -3.16991139	    -10.91005801	      8.00090974	     -2.86735374	      1.01266405	     -2.95212192	     -6.85988066	    -10.48207943	     10.44975247	     -2.17141808	    -10.05300413	      3.26836054	      3.56226203
      0.26000000	     -0.43540601	      3.79104775	    175.73928734	     -1.43218744	      1.02678111	     -0.04023055	      1.44556852	      6.62591442	     -3.16213604	    -10.92922024	      8.00071915	     -2.87157379	      1.02618673	     -2.95284552	     -6.86721957	    -10.49135707	     10.44767810	     -2.16984655	    -10.06603325	      3.26876849	      3.57371234
